<svg xmlns="http://www.w3.org/2000/svg" viewBox="0 0 24 24" fill="none" stroke-width="1.5" stroke="currentColor">
  <path stroke-linecap="round" stroke-linejoin="round" d="M12 21.75c2.436 0 4.752-.668 6.75-1.993a8.25 8.25 0 00-3.993-6.007 8.25 8.25 0 00-9.514 0A8.25 8.25 0 003.25 19.757c2.008 1.325 4.324 1.993 6.75 1.993z" />
  <path stroke-linecap="round" stroke-linejoin="round" d="M12 2.25c-2.436 0-4.752.668-6.75 1.993a8.25 8.25 0 003.993 6.007 8.25 8.25 0 009.514 0A8.25 8.25 0 0020.75 4.243c-2.008-1.325-4.324-1.993-6.75-1.993z" />
  <path stroke-linecap="round" stroke-linejoin="round" d="M12 13.75a1.5 1.5 0 100-3 1.5 1.5 0 000 3z" />
  <path stroke-linecap="round" stroke-linejoin="round" d="M16.5 8.25a6.75 6.75 0 01-1.757 4.436" />
  <path stroke-linecap="round" stroke-linejoin="round" d="M7.5 8.25a6.75 6.75 0 001.757 4.436" />
</svg>